<svg width="52" height="55" viewBox="0 0 52 55" fill="none" xmlns="http://www.w3.org/2000/svg">
<path d="M37.9525 54.8229C37.2894 54.8249 36.6379 54.6491 36.0657 54.3138C35.4936 53.9786 35.0217 53.4961 34.6992 52.9167L28.3705 41.9621C28.1177 41.5239 28.0493 41.0033 28.1804 40.5147C28.3115 40.0262 28.6313 39.6097 29.0694 39.3569C29.5076 39.1041 30.0282 39.0357 30.5168 39.1668C31.0054 39.2979 31.4218 39.6177 31.6746 40.0558L38.0034 51.0104L39.5792 47.1471C39.9058 46.404 40.4625 45.7856 41.1672 45.3829C41.8719 44.9802 42.6874 44.8146 43.4934 44.9104L47.6617 45.4188L40.0367 32.2783C39.9115 32.0614 39.8303 31.8219 39.7977 31.5736C39.7651 31.3252 39.7817 31.0729 39.8466 30.831C39.9115 30.5891 40.0235 30.3623 40.176 30.1636C40.3285 29.965 40.5187 29.7983 40.7357 29.6731C40.9526 29.548 41.1921 29.4668 41.4404 29.4341C41.6888 29.4015 41.9411 29.4182 42.183 29.4831C42.425 29.548 42.6517 29.6599 42.8504 29.8124C43.049 29.965 43.2157 30.1551 43.3409 30.3721L50.9659 43.5379C51.3118 44.1489 51.4823 44.8435 51.4586 45.5452C51.4349 46.247 51.2178 46.9285 50.8314 47.5147C50.445 48.1009 49.9042 48.569 49.2686 48.8674C48.6331 49.1658 47.9275 49.2829 47.2296 49.2058L43.0613 48.6721L41.46 52.51C41.185 53.1639 40.7318 53.7275 40.1522 54.1364C39.5725 54.5453 38.8896 54.7832 38.1813 54.8229H37.9525Z" fill="#7B0AD1"/>
<path d="M14.0618 54.8229H13.8585C13.1502 54.7832 12.4673 54.5453 11.8876 54.1364C11.3079 53.7275 10.8548 53.1639 10.5797 52.51L8.92766 48.6467L4.81016 49.1804C4.11412 49.2719 3.40638 49.1655 2.76804 48.8733C2.12971 48.5811 1.58661 48.115 1.20099 47.5283C0.834592 46.932 0.640625 46.2458 0.640625 45.5458C0.640625 44.8459 0.834592 44.1597 1.20099 43.5633L8.82599 30.3721C9.07878 29.9339 9.49527 29.6141 9.98384 29.4831C10.4724 29.352 10.993 29.4204 11.4312 29.6731C11.8694 29.9259 12.1892 30.3424 12.3202 30.831C12.4513 31.3196 12.3829 31.8402 12.1302 32.2783L4.50516 45.4442L8.64808 44.9104C9.45506 44.8062 10.274 44.9682 10.9805 45.3719C11.687 45.7756 12.2424 46.3989 12.5622 47.1471L14.2143 51.0104L20.416 40.0558C20.6688 39.6177 21.0853 39.2979 21.5738 39.1668C22.0624 39.0357 22.583 39.1041 23.0212 39.3569C23.4594 39.6097 23.7792 40.0262 23.9102 40.5147C24.0413 41.0033 23.9729 41.5239 23.7202 41.9621L17.3152 52.9167C16.9927 53.4961 16.5208 53.9786 15.9487 54.3138C15.3765 54.6491 14.725 54.8249 14.0618 54.8229Z" fill="#7B0AD1"/>
<path d="M26.0077 45.0629C24.3141 45.0643 22.6884 44.3976 21.4835 43.2075L19.2468 40.9708C19.0114 40.7307 18.7307 40.5396 18.421 40.4087C18.1112 40.2779 17.7785 40.2097 17.4423 40.2083H14.9006C13.2107 40.2016 11.5919 39.5274 10.3969 38.3324C9.20198 37.1375 8.5277 35.5187 8.52101 33.8288V31.2871C8.52696 30.93 8.4576 30.5758 8.31746 30.2473C8.17732 29.9189 7.96955 29.6236 7.70767 29.3808L5.44559 27.1442C4.25549 25.9393 3.58876 24.3136 3.59017 22.62C3.58395 21.7866 3.74241 20.9601 4.05645 20.1881C4.3705 19.4161 4.83394 18.7137 5.42017 18.1213L7.70767 15.8592C7.94324 15.6217 8.12961 15.34 8.25609 15.0304C8.38258 14.7207 8.44669 14.3891 8.44476 14.0546V11.5129C8.43469 10.6697 8.59125 9.83274 8.90544 9.05014C9.21964 8.26755 9.68529 7.55471 10.2757 6.95252C10.866 6.35034 11.5695 5.87066 12.3457 5.54104C13.122 5.21141 13.9556 5.03831 14.7989 5.03168H17.3406C17.6751 5.03361 18.0067 4.9695 18.3164 4.84301C18.626 4.71653 18.9077 4.53016 19.1452 4.29459L21.4835 2.08334C22.7055 0.90609 24.3363 0.248352 26.0331 0.248352C27.7299 0.248352 29.3607 0.90609 30.5827 2.08334L32.8193 4.32001C33.0568 4.55557 33.3385 4.74194 33.6482 4.86843C33.9578 4.99491 34.2894 5.05903 34.6239 5.05709H37.1656C38.8599 5.06382 40.4825 5.74159 41.6782 6.94204C42.8739 8.14248 43.5452 9.76777 43.5452 11.4621V14.0038C43.5432 14.3383 43.6074 14.6699 43.7338 14.9795C43.8603 15.2892 44.0467 15.5708 44.2823 15.8083L46.5443 18.0704C47.7287 19.2734 48.3925 20.8938 48.3925 22.5819C48.3925 24.27 47.7287 25.8904 46.5443 27.0933L44.2823 29.33C44.0436 29.5705 43.8555 29.8563 43.7289 30.1706C43.6023 30.4848 43.5399 30.8212 43.5452 31.16V33.7017C43.5586 34.5449 43.4054 35.3825 43.0943 36.1664C42.7832 36.9503 42.3204 37.665 41.7323 38.2696C41.1443 38.8741 40.4427 39.3566 39.6677 39.6893C38.8928 40.022 38.0597 40.1984 37.2164 40.2083H34.6748C34.3385 40.2097 34.0058 40.2779 33.696 40.4087C33.3863 40.5396 33.1056 40.7307 32.8702 40.9708L30.6335 43.2075C30.0247 43.809 29.302 44.283 28.5077 44.6016C27.7133 44.9202 26.8634 45.077 26.0077 45.0629ZM14.7989 8.84417C14.1248 8.84417 13.4783 9.11196 13.0017 9.58861C12.525 10.0653 12.2573 10.7117 12.2573 11.3858V13.9275C12.2601 14.7627 12.0977 15.5902 11.7792 16.3623C11.4608 17.1345 10.9927 17.8359 10.4018 18.4263L8.16517 20.6883C7.92501 20.9237 7.73396 21.2044 7.60307 21.5142C7.47218 21.824 7.40407 22.1566 7.40267 22.4929C7.40068 22.8335 7.46716 23.171 7.59814 23.4853C7.72913 23.7997 7.92196 24.0845 8.16517 24.3229L10.4018 26.5596C10.9957 27.1529 11.4656 27.8585 11.7841 28.6352C12.1027 29.412 12.2635 30.2443 12.2573 31.0838V33.6254C12.2573 34.2995 12.525 34.946 13.0017 35.4226C13.4783 35.8993 14.1248 36.1671 14.7989 36.1671H17.3406C18.1782 36.1633 19.0081 36.3278 19.7809 36.6509C20.5537 36.974 21.2537 37.4491 21.8393 38.0479L24.076 40.2846C24.5712 40.7511 25.2257 41.0108 25.906 41.0108C26.5863 41.0108 27.2409 40.7511 27.736 40.2846L29.9727 38.0479C30.5583 37.4491 31.2583 36.974 32.0311 36.6509C32.804 36.3278 33.6338 36.1633 34.4714 36.1671H37.0131C37.6872 36.1671 38.3337 35.8993 38.8103 35.4226C39.287 34.946 39.5548 34.2995 39.5548 33.6254V31.0838C39.5485 30.2443 39.7093 29.412 40.0279 28.6352C40.3464 27.8585 40.8163 27.1529 41.4102 26.5596L43.6723 24.3229C43.9143 24.0862 44.1067 23.8035 44.238 23.4915C44.3693 23.1794 44.437 22.8442 44.437 22.5056C44.437 22.1671 44.3693 21.8319 44.238 21.5198C44.1067 21.2077 43.9143 20.9251 43.6723 20.6883L41.4102 18.4263C40.8194 17.8359 40.3512 17.1345 40.0328 16.3623C39.7143 15.5902 39.5519 14.7627 39.5548 13.9275V11.3858C39.5548 10.7117 39.287 10.0653 38.8103 9.58861C38.3337 9.11196 37.6872 8.84417 37.0131 8.84417H34.4714C33.6362 8.84706 32.8087 8.68459 32.0366 8.36615C31.2645 8.04771 30.563 7.57958 29.9727 6.98876L27.736 4.75209C27.4989 4.5061 27.2147 4.31044 26.9002 4.1768C26.5858 4.04316 26.2477 3.97428 25.906 3.97428C25.5644 3.97428 25.2262 4.04316 24.9118 4.1768C24.5974 4.31044 24.3131 4.5061 24.076 4.75209L21.8393 6.98876C21.249 7.57958 20.5475 8.04771 19.7754 8.36615C19.0033 8.68459 18.1758 8.84706 17.3406 8.84417H14.7989Z" fill="#7B0AD1"/>
<path d="M24.3308 28.5673C23.8187 28.5627 23.3278 28.3627 22.9583 28.0081L18.7391 23.7635C18.3822 23.4061 18.1816 22.9216 18.1816 22.4164C18.1816 21.9113 18.3822 21.4268 18.7391 21.0693C19.104 20.7168 19.5916 20.5198 20.0989 20.5198C20.6063 20.5198 21.0938 20.7168 21.4587 21.0693L24.3308 23.9668L31.4475 16.8248C31.8124 16.4722 32.2999 16.2752 32.8073 16.2752C33.3146 16.2752 33.8022 16.4722 34.167 16.8248C34.524 17.1822 34.7245 17.6667 34.7245 18.1718C34.7245 18.677 34.524 19.1615 34.167 19.5189L25.6779 28.0081C25.3177 28.3611 24.8351 28.5614 24.3308 28.5673Z" fill="#7B0AD1"/>
</svg>
