<svg width="52" height="50" viewBox="0 0 52 50" fill="none" xmlns="http://www.w3.org/2000/svg">
<path d="M47.6369 4.90679C41.6301 -1.13392 31.7167 -0.833636 25.9976 5.44546C20.2781 -0.833414 10.3651 -1.13403 4.35827 4.9069C-1.61498 10.8555 -1.41149 20.651 4.74302 26.3924C1.59436 29.3996 3.39818 34.8034 7.68386 35.3302C7.42714 38.2648 9.92488 40.9559 12.8794 40.906C13.0605 44.1366 16.303 46.449 19.4116 45.5953C20.4315 49.4441 25.3342 50.7593 28.1469 47.9266C29.7444 46.3387 31.0147 45.3374 31.0958 42.9324C33.7353 42.8588 36.0191 40.544 36.0594 37.906C38.7243 37.8649 41.0461 35.5423 41.0871 32.8782C43.8517 32.8362 46.2487 30.341 46.12 27.5242L47.6367 26.0077C53.4543 20.1901 53.4543 10.7242 47.6369 4.90679ZM7.02983 28.8206L8.45435 27.3961C8.82254 27.0279 9.30597 26.8438 9.78963 26.8438C11.448 26.8328 12.3136 28.8831 11.1247 30.0664L9.70017 31.4909C7.85623 33.1885 5.33203 30.6653 7.02983 28.8206ZM11.0019 35.6865C11.0019 35.182 11.1984 34.7078 11.555 34.3512L12.9803 32.926C13.3368 32.5698 13.8107 32.3736 14.3147 32.3736C15.9872 32.3708 16.8349 34.4163 15.6499 35.5971L14.3929 36.854C14.0087 37.2895 13.481 37.5841 12.8901 37.5746C11.8753 37.5955 10.9809 36.7014 11.0019 35.6865ZM16.7504 41.8818C16.0179 41.1789 16.0179 39.9143 16.7504 39.2115L18.0074 37.9545C18.7402 37.0845 20.0267 36.9713 20.8454 37.7869C21.5815 38.5232 21.5815 39.7209 20.8454 40.4572L19.4208 41.8819C18.6846 42.6184 17.4867 42.6182 16.7504 41.8818ZM27.2141 44.1446L25.7895 45.5691C25.4329 45.9257 24.9587 46.1222 24.4544 46.1222C23.9499 46.1222 23.4757 45.9257 23.1191 45.5691C22.3867 44.8662 22.3864 43.6016 23.1192 42.8987L24.5436 41.4742C25.2798 40.738 26.4778 40.738 27.2139 41.4741C27.9465 42.177 27.9467 43.4416 27.2141 44.1446ZM42.2349 28.9981C41.5319 29.7305 40.2673 29.7307 39.5645 28.9981L32.1455 21.5791L29.788 23.9366L37.207 31.3555C37.9432 32.0918 37.9432 33.2896 37.207 34.0259C36.4708 34.7624 35.273 34.7621 34.5367 34.0259L27.2435 26.7327L27.1177 26.6069L24.7602 28.9644L24.886 29.0902L32.1792 36.3834C32.9155 37.1196 32.9155 38.3176 32.1792 39.0538C31.4429 39.7901 30.245 39.7901 29.5088 39.0538L29.5073 39.0553C28.1527 37.7457 26.2595 37.3145 24.5496 37.7617C24.0053 35.5374 21.7694 33.8535 19.5209 33.9025C19.4119 31.5085 17.3879 29.3458 14.9961 29.0874C15.3117 24.9799 10.8005 22.1512 7.24043 24.1746C2.28228 19.7457 1.97688 11.9708 6.71599 7.26428C11.4279 2.5194 19.2133 2.8338 23.6403 7.80295L19.5188 11.9245L22.8214 15.2271C25.3582 17.7641 29.2675 18.1132 32.1822 16.2746L42.2352 26.3277C42.971 27.0639 42.971 28.2618 42.2349 28.9981ZM45.2794 23.6502L44.7714 24.158C44.7135 24.0943 44.6538 24.0316 44.5925 23.9702L32.3132 11.6909L31.1344 12.8696C29.4925 14.5115 26.8209 14.5117 25.1786 12.8696L24.2335 11.9245L28.8937 7.26428C40.214 -3.1549 55.6964 12.3372 45.2794 23.6502Z" fill="#7B0AD1"/>
</svg>
