<svg width="56" height="56" viewBox="0 0 56 56" fill="none" xmlns="http://www.w3.org/2000/svg">
<g clip-path="url(#clip0_315_1051)">
<path d="M40.3508 4.40387C35.7278 0.647061 29.685 -0.798876 23.771 0.436842C16.3804 1.98111 10.3508 8.03687 8.76706 15.506C7.4317 21.804 9.07725 28.127 13.2818 32.8536C15.3672 35.198 16.5156 38.1306 16.5156 41.1199V44.4011C16.5156 46.5399 17.8873 48.3635 19.7969 49.0408V51.073C19.7969 53.7869 22.0048 55.9949 24.7188 55.9949H31.2813C33.9952 55.9949 36.2031 53.7869 36.2031 51.073V49.0408C38.1127 48.3635 39.4844 46.5399 39.4844 44.4011V41.1199C39.4844 38.1689 40.6669 35.1947 42.814 32.7451C45.9567 29.1597 47.6875 24.5594 47.6875 19.7917C47.6875 13.8016 45.0134 8.19284 40.3508 4.40387ZM32.9219 51.073C32.9219 51.9776 32.1859 52.7136 31.2813 52.7136H24.7188C23.8141 52.7136 23.0781 51.9776 23.0781 51.073V49.323H32.9219V51.073ZM36.2031 44.4011C36.2031 45.3057 35.4671 46.0417 34.5625 46.0417H21.4375C20.5329 46.0417 19.7969 45.3057 19.7969 44.4011V42.7605H36.2031V44.4011ZM28 27.8502C29.1079 27.8502 30.2155 27.673 31.2813 27.3213V39.4793H24.7188V27.3213C25.7845 27.673 26.892 27.8502 28 27.8502ZM25.2574 24.0236L28 18.5384L30.7426 24.0235C28.9845 24.7469 27.0155 24.7469 25.2574 24.0236ZM40.3465 30.5823C38.0652 33.1849 36.659 36.2937 36.2966 39.4792H34.5625V24.7251C34.5625 24.7229 34.5625 24.7208 34.5625 24.7186C34.5625 24.4947 34.514 24.2481 34.4049 24.0164C34.3992 24.0044 34.3952 23.9918 34.3892 23.98L29.4674 14.1363C29.1895 13.5804 28.6214 13.2293 27.9999 13.2293C27.3784 13.2293 26.8104 13.5804 26.5324 14.1363L21.6105 23.98C21.5019 24.1977 21.4374 24.4624 21.4374 24.7174C21.4374 24.7204 21.4374 24.7232 21.4374 24.7262V39.4793H19.7074C19.3557 36.2717 17.9756 33.1935 15.7335 30.6729C12.2294 26.7337 10.8602 21.4537 11.977 16.1866C13.2952 9.96975 18.3046 4.93117 24.4421 3.64875C29.3846 2.61603 34.4287 3.81948 38.2815 6.95034C42.1739 10.1135 44.4062 14.794 44.4062 19.7917C44.4062 23.7634 42.9645 27.5955 40.3465 30.5823Z" fill="#7B0AD1"/>
<path d="M4.92188 19.7917H1.64062C0.734562 19.7917 0 20.5263 0 21.4324C0 22.3384 0.734562 23.073 1.64062 23.073H4.92188C5.82794 23.073 6.5625 22.3384 6.5625 21.4324C6.5625 20.5263 5.82794 19.7917 4.92188 19.7917Z" fill="#7B0AD1"/>
<path d="M5.60143 11.5886L3.28126 9.26844C2.64054 8.62772 1.6018 8.62772 0.961084 9.26844C0.320365 9.90916 0.320365 10.9479 0.961084 11.5886L3.28126 13.9088C3.92208 14.5496 4.96082 14.5494 5.60143 13.9088C6.24215 13.2681 6.24215 12.2293 5.60143 11.5886Z" fill="#7B0AD1"/>
<path d="M5.60142 28.9559C4.9607 28.3152 3.92197 28.3152 3.28125 28.9559L0.961078 31.2761C0.320469 31.9168 0.320469 32.9556 0.961078 33.5963C1.60169 34.2369 2.64042 34.237 3.28125 33.5963L5.60142 31.2761C6.24203 30.6354 6.24203 29.5967 5.60142 28.9559Z" fill="#7B0AD1"/>
<path d="M54.3594 19.7917H51.0781C50.1721 19.7917 49.4375 20.5263 49.4375 21.4324C49.4375 22.3384 50.1721 23.073 51.0781 23.073H54.3594C55.2654 23.073 56 22.3384 56 21.4324C56 20.5263 55.2654 19.7917 54.3594 19.7917Z" fill="#7B0AD1"/>
<path d="M55.0389 9.26844C54.3983 8.62772 53.3595 8.62772 52.7187 9.26844L50.3986 11.5886C49.7579 12.2293 49.7579 13.2681 50.3986 13.9088C51.0392 14.5495 52.078 14.5495 52.7187 13.9088L55.0389 11.5886C55.6796 10.9479 55.6796 9.90916 55.0389 9.26844Z" fill="#7B0AD1"/>
<path d="M55.0389 31.2761L52.7188 28.9559C52.0783 28.3152 51.0394 28.3152 50.3986 28.9559C49.7578 29.5967 49.7579 30.6354 50.3986 31.2761L52.7188 33.5963C53.3593 34.237 54.3982 34.237 55.0389 33.5963C55.6796 32.9556 55.6796 31.9168 55.0389 31.2761Z" fill="#7B0AD1"/>
</g>
<defs>
<clipPath id="clip0_315_1051">
<rect width="56" height="56" fill="white"/>
</clipPath>
</defs>
</svg>
