<svg width="141" height="129" viewBox="0 0 141 129" fill="none" xmlns="http://www.w3.org/2000/svg">
<g clip-path="url(#clip0_315_760)">
<path d="M139.4 33.88C136.6 18.54 127.36 7.38001 113.38 2.48001C96.8 -3.33999 82.26 1.12001 70.12 15.78C68.22 18.08 66.58 20.48 65.18 22.84C56.02 16.44 44.56 13.96 30.44 15.26C17.26 16.46 7.00001 25.52 2.26001 40.1C-2.65999 55.22 0.600009 70.1 11.42 82.02C20.1 91.58 31.52 98.48 47.38 103.74C48.56 104.14 49.74 104.5 50.92 104.88C61.6 108.3 67.82 110.62 71.2 118.38C73.72 124.2 78.72 127.86 84.56 128.2C84.84 128.2 85.14 128.22 85.42 128.22C91.66 128.22 97.72 124.36 101.42 117.96C108.82 105.2 116.14 92.76 124.46 80.82C133.14 68.36 142.7 51.76 139.44 33.9L139.4 33.88Z" fill="white"/>
<path d="M90.3789 2.40637C97.1498 0.325903 104.455 0.555801 112.289 3.16418L113.049 3.42395C126.668 8.1974 135.676 19.0498 138.416 34.0597L138.506 34.5509L138.54 34.5675C141.46 51.8033 132.237 67.9065 123.64 80.2482C115.293 92.2261 107.954 104.699 100.555 117.458V117.459C96.9965 123.614 91.2348 127.22 85.4199 127.22C85.3002 127.22 85.1727 127.216 85.0244 127.211C84.8996 127.207 84.7586 127.202 84.6172 127.201H84.6182C79.1907 126.885 74.5018 123.49 72.1172 117.983H72.1182L72.1172 117.981L71.9463 117.599C68.3225 109.676 61.6812 107.276 51.2256 103.928H51.2266C50.026 103.541 48.8727 103.19 47.7012 102.793L47.6943 102.791L46.2324 102.297C31.2508 97.141 20.4288 90.4547 12.1602 81.3478C1.74267 69.8711 -1.49531 55.6348 2.99121 41.1017L3.21094 40.4093C7.85236 26.1325 17.8239 17.413 30.5303 16.256H30.5312C44.4828 14.9715 55.6899 17.4288 64.6074 23.6593L65.4902 24.2765L66.04 23.3497C67.4171 21.0284 69.0272 18.6717 70.8896 16.4171L70.8906 16.4181C76.8678 9.20016 83.3827 4.55607 90.3789 2.40637Z" stroke="black" stroke-opacity="0.22" stroke-width="2"/>
<path d="M68.2397 38.12C70.6597 32.02 73.3997 26.5601 77.3597 21.7601C86.6397 10.5601 97.1797 6.72005 110.26 11.3401C122.04 15.4801 128.16 24.6401 130.14 35.5601C132.76 49.9201 124.46 64.2801 116.7 75.4201C108.18 87.66 100.68 100.38 93.2397 113.22C89.4197 119.82 82.4997 120.92 79.7797 114.62C73.9597 101.24 61.9997 98.66 50.2997 94.7801C38.2797 90.8 27.0397 85.2401 18.3397 75.6801C9.7397 66.2001 7.2797 54.92 11.1597 42.98C14.2597 33.46 20.6397 25.5801 31.2597 24.6001C44.2397 23.4201 56.7797 25.54 66.0797 36.26C66.5797 36.84 67.2597 37.3 68.1997 38.12H68.2397Z" fill="#FE5764"/>
<path d="M44.5002 35.5596C48.9602 35.5996 52.0002 37.1796 54.5202 39.4196C55.9602 40.7196 57.6002 42.7396 55.7202 44.9596C54.1002 46.8396 52.5402 49.1196 49.3802 47.8596C47.4402 47.0796 45.4002 46.4996 43.4402 45.7596C40.8802 44.7796 37.0202 45.0796 37.6802 40.6196C38.3402 36.1396 42.0802 36.1796 44.5002 35.5796V35.5596Z" fill="#FD818B"/>
<path d="M99.5596 22.8604C100.84 22.8604 102.24 22.5204 103.36 22.9204C106.5 24.0604 109.76 25.1604 110.86 28.9804C111.38 30.7604 111.62 32.6404 109.98 33.5804C106.72 35.4804 103.8 33.7004 101.22 31.8004C99.3197 30.4004 97.2597 30.5804 95.1397 30.4804C93.1597 30.3804 90.4796 31.1404 90.3396 27.8804C90.2196 25.1404 92.0197 23.5404 94.4797 23.0004C96.0997 22.6404 97.8596 22.9404 99.5596 22.9404C99.5596 22.9204 99.5596 22.8804 99.5596 22.8604Z" fill="#FD828A"/>
</g>
<defs>
<clipPath id="clip0_315_760">
<rect width="140.04" height="128.22" fill="white"/>
</clipPath>
</defs>
</svg>
