<svg width="203" height="215" viewBox="0 0 203 215" fill="none" xmlns="http://www.w3.org/2000/svg">
<g clip-path="url(#clip0_315_748)">
<path d="M197.26 61.0199C193.94 49.5999 188.56 35.1599 176.32 24.8799C156.74 8.39988 132.28 0.319879 101.58 0.179879H100.04C90.02 -0.440121 79.66 0.639879 66.48 3.65988C35.68 10.6799 15.76 28.0399 7.28 55.2399C-4.2 92.0399 -2.08 128.32 13.58 163.1C25.58 189.74 42.94 205.08 66.62 210.02C79.94 212.78 92.4 214.14 104.76 214.14C114.1 214.14 123.44 213.34 132.52 211.74C148.06 209.02 161 201.98 171 190.8C185.14 174.98 194.48 155.78 199.52 132.08C204.68 107.86 203.92 83.9599 197.24 60.9999L197.26 61.0199Z" fill="white"/>
<path d="M66.7029 4.63477C79.8202 1.62914 90.081 0.565325 99.9783 1.17773L100.009 1.17969H101.575C132.09 1.31884 156.309 9.34424 175.676 25.6445L175.677 25.6455C187.668 35.7168 192.982 49.8945 196.292 61.2715L196.28 61.2793C202.912 84.0745 203.669 107.807 198.542 131.871V131.872C193.533 155.425 184.263 174.46 170.255 190.133C160.413 201.136 147.679 208.071 132.347 210.755H132.346C123.325 212.345 114.043 213.14 104.76 213.14C92.4754 213.14 80.0838 211.789 66.8231 209.041H66.824C43.5237 204.18 26.3911 189.105 14.492 162.689C-1.06638 128.135 -3.17367 92.1072 8.23419 55.5381V55.5371C16.595 28.7198 36.2041 11.586 66.702 4.63477H66.7029Z" stroke="black" stroke-opacity="0.22" stroke-width="2"/>
<path d="M101.519 10.1798C126.719 10.2998 150.259 16.0598 169.879 32.5398C179.359 40.5198 184.219 51.9998 187.639 63.8198C193.999 85.6798 194.459 107.84 189.739 130.02C185.439 150.14 177.439 168.6 163.539 184.16C154.739 194 143.759 199.64 130.799 201.92C109.939 205.58 89.2387 204.56 68.6387 200.26C45.3787 195.42 31.7787 179.22 22.6987 159.04C7.97874 126.34 6.07874 92.6598 16.8187 58.2198C24.8987 32.3198 43.5587 19.1398 68.6987 13.3998C78.7787 11.0998 89.0187 9.51984 99.4387 10.1598C100.139 13.8598 99.4387 17.0998 96.3787 19.5598C86.9587 21.3198 77.2987 21.1798 67.8987 23.4198C59.1987 25.4998 50.7587 28.1598 43.0787 32.7798C38.2987 35.6598 38.2387 37.3398 42.5387 40.8398C53.9587 50.1198 67.4987 53.6998 81.7587 55.3398C83.4387 55.5398 84.9387 54.6798 86.5387 54.3798C95.3987 57.7198 104.299 58.7398 113.319 55.0198C127.959 52.9598 141.999 48.9398 155.099 42.0198C160.759 39.0198 160.679 38.8198 155.299 35.2398C141.799 26.2398 126.639 22.5798 110.719 21.3198C109.099 21.1998 107.459 21.3398 105.879 20.7998C102.439 18.0998 100.639 14.6998 101.519 10.2198V10.1798Z" fill="#FD838C"/>
<path d="M101.521 10.1806C102.961 13.4206 103.601 17.0006 105.921 19.8406C113.061 27.1806 117.341 47.1006 113.641 55.8006C106.601 60.4406 91.9608 59.9206 86.2808 54.8406C84.2808 52.7406 84.6808 50.0606 84.8608 47.6206C85.6808 36.8806 89.8008 27.3806 96.1208 18.7406C98.4808 16.3606 97.6208 12.7406 99.4608 10.1406C100.161 10.1406 100.861 10.1606 101.541 10.1806H101.521Z" fill="#FDCD84"/>
<path d="M181.2 79.8398C182.72 81.3398 183.22 83.3599 183.28 85.2999C184.08 106.62 182.14 127.38 173.82 147.52C167.78 162.14 158.84 174.16 147.5 184.66C141.94 189.82 134.32 190.78 127.28 191.86C117.3 193.4 107.08 194.6 97.0396 194.1C84.3396 193.46 71.3996 193.12 59.3596 187.58C46.3796 181.62 38.5796 170.82 32.0996 158.96C20.1596 137.14 15.4596 113.58 16.4996 88.7999C16.5796 87.0199 17.4796 85.2399 17.3996 83.4799C17.2396 79.4199 19.5596 80.2799 21.8996 80.8999C24.1396 80.2199 25.7196 81.6999 27.3396 82.7599C47.1596 95.5599 69.2996 100.14 92.4396 101.2C110.48 102.02 128.3 100.58 145.68 95.3599C155.44 92.4199 164.82 88.6799 173.38 82.9799C175.7 81.4199 177.96 79.2998 181.2 79.8398Z" fill="#FEA5AE"/>
<path d="M96.0998 70.0404C96.0998 73.1204 95.9598 76.2204 96.1398 79.3004C96.2798 81.9604 97.0598 84.1604 100.38 81.9404C99.5398 78.8604 100.16 75.8204 100.58 72.7804C101.7 69.5004 104.32 67.5804 107.02 65.7604C115.26 66.6604 123.02 64.0604 130.86 62.2004C133.26 61.6404 135.38 61.1204 137.64 62.3204C140.9 60.3404 144.42 59.9404 148.12 60.6404C156.86 62.2804 165.8 63.3604 172.8 69.7204C177.78 74.2204 177.76 76.7204 171.9 80.1204C158.86 87.6404 144.76 92.2404 129.96 94.8404C96.0398 100.84 63.0198 98.6804 31.4198 83.9404C27.7398 82.2204 22.6398 81.0004 22.5198 76.1604C22.3998 71.6804 27.2598 70.1004 30.5598 68.1004C36.8598 64.2604 44.1198 63.0204 51.1798 61.3404C52.7598 60.9604 54.4598 61.0004 55.7398 62.3604C67.3598 60.1404 78.0998 66.9004 89.5998 65.7804C91.5798 67.5204 94.1598 68.3004 96.1198 70.0804L96.0998 70.0404Z" fill="#FEA5AE"/>
<path d="M55.7214 62.3398C44.9014 63.8998 34.3614 66.0998 25.5214 73.3398C22.3214 75.9598 22.7014 77.2798 25.9414 79.2598C35.9614 85.3598 46.9214 88.9398 58.1814 91.8598C74.5014 96.0998 91.1413 97.1398 107.841 96.0798C130.061 94.6398 151.601 90.0598 171.201 78.7998C176.841 75.5598 176.841 74.9998 171.861 70.9998C162.981 63.8398 152.581 61.7198 141.441 62.2998C140.181 62.3598 138.901 62.3398 137.621 62.3398C137.621 60.4998 139.081 59.9198 140.421 59.4598C149.661 56.2598 158.261 51.8398 166.381 46.4198C168.981 44.6798 170.961 45.1398 172.801 47.6798C178.601 55.7398 180.821 65.1998 183.341 74.5198C183.941 76.7398 182.141 78.1598 181.201 79.8598C158.321 95.9198 132.601 102.42 104.961 102.88C80.3413 103.28 56.5414 99.9998 34.3614 88.6998C30.0214 86.4998 26.0614 83.5398 21.9414 80.9398C18.3414 78.2798 18.5014 74.9998 19.4814 70.9198C21.5614 62.2598 24.3814 53.9798 28.8614 46.2798C29.6614 44.8998 30.2814 43.0798 32.4814 44.5598C40.2414 49.8198 48.1614 54.7998 56.4413 59.2198C60.1814 61.2198 55.9414 61.2998 55.7214 62.3398Z" fill="#FD5764"/>
<path d="M96.1212 18.7406C93.5212 24.8806 90.8412 31.0006 88.3212 37.1806C86.0012 42.8606 85.8612 48.8206 86.2612 54.8406C85.6812 57.9006 83.1812 57.0406 81.4612 56.8406C67.1612 55.0606 53.4812 51.4206 41.8612 42.3006C41.5812 42.0806 41.2812 41.8606 41.0012 41.6206C35.5812 37.1406 35.7212 35.2606 42.0212 31.6406C54.7612 24.3206 68.5812 20.7406 83.1812 19.8006C87.4812 19.5206 91.7212 18.3206 96.1012 18.7406H96.1212Z" fill="#FE5764"/>
<path d="M113.64 55.8001C113.76 43.2401 112.14 31.0401 105.92 19.8401C125.84 19.8401 144.04 25.3201 160.48 36.7001C163.38 38.7001 162.16 40.0201 160.28 41.0201C145.6 48.6401 130.5 55.0201 113.64 55.8201V55.8001Z" fill="#FE5764"/>
<path d="M101.519 72.2202C101.159 75.4602 102.399 78.9002 100.379 81.9402C98.4587 81.8602 97.2787 80.9002 97.2387 78.9602C97.1587 75.3602 97.2387 71.7602 97.2387 68.1602C97.2387 65.8402 98.8187 65.6602 100.539 65.6602C102.359 67.6202 101.579 69.9802 101.519 72.2202Z" fill="#F65F68"/>
<path d="M101.52 72.2199C99.74 70.2599 100.82 67.8599 100.54 65.6599C102.7 65.6799 104.88 65.7199 107.04 65.7399C106.14 68.6999 103.34 70.0199 101.52 72.1999V72.2199Z" fill="#FBB58B"/>
<path d="M96.1001 70.0403C92.8201 70.2803 90.6001 68.9203 89.5801 65.7403C92.6201 65.8603 96.8801 64.1203 96.1001 70.0403Z" fill="#FCBD92"/>
</g>
<defs>
<clipPath id="clip0_315_748">
<rect width="202.92" height="214.14" fill="white"/>
</clipPath>
</defs>
</svg>
