<svg width="190" height="190" viewBox="0 0 190 190" fill="none" xmlns="http://www.w3.org/2000/svg">
<g clip-path="url(#clip0_315_710)">
<path d="M24.8806 124.012C15.7558 111.367 14.1067 96.9722 20.2558 83.4948C27.5423 67.505 40.8303 60.107 59.813 61.5052C62.7879 61.7279 65.6549 62.2074 68.3268 62.8323C70.0555 51.7924 76.2046 41.8089 86.9225 32.5251C96.9173 23.85 110.559 22.7252 124.358 29.4054C138.671 36.3297 147.146 48.9878 148.249 65.0484C149.132 77.9308 146.198 90.947 139.007 106.03C138.478 107.158 137.92 108.258 137.377 109.373C132.446 119.445 129.811 125.538 133.067 133.351C135.519 139.2 134.696 145.341 130.896 149.789C130.702 149.991 130.509 150.221 130.315 150.423C125.992 154.924 119.011 156.621 111.832 154.857C97.5029 151.356 83.4601 148.019 69.0852 145.749C54.086 143.379 35.4911 138.777 24.8674 124.054L24.8806 124.012Z" fill="white"/>
<path d="M36.1345 66.8539C29.944 70.2965 25.0498 75.7248 21.5049 83.1819L21.166 83.9098C15.1757 97.0391 16.7634 111.054 25.6918 123.426L25.9839 123.831L25.9722 123.868C36.3813 137.912 54.3842 142.414 69.241 144.761C83.6615 147.038 97.741 150.384 112.069 153.885L112.07 153.885C118.974 155.582 125.566 153.924 129.593 149.73C129.676 149.644 129.762 149.549 129.861 149.439C129.944 149.346 130.039 149.241 130.136 149.138L130.135 149.139C133.667 145.005 134.465 139.272 132.145 133.737L132.144 133.738L132.144 133.736L131.987 133.348C128.782 125.246 131.651 118.794 136.478 108.933L136.478 108.934C137.031 107.8 137.576 106.725 138.101 105.605L138.105 105.599L138.761 104.202C145.419 89.8254 148.092 77.3884 147.251 65.1166C146.189 49.6534 138.164 37.4571 124.574 30.6266L123.922 30.3055C110.41 23.7643 97.2141 24.9168 87.5784 33.2801L87.5777 33.2808C76.9876 42.4538 70.9973 52.2392 69.3144 62.9868L69.148 64.051L68.0988 63.8056C65.4706 63.191 62.6556 62.7199 59.7394 62.5016L59.7394 62.503C50.3932 61.8146 42.531 63.2968 36.1345 66.8539Z" stroke="black" stroke-opacity="0.22" stroke-width="2"/>
<path d="M77.2282 75.6236C71.1523 73.1439 65.3163 71.3382 59.1112 70.8697C44.6052 69.8053 34.5349 74.7477 28.8072 87.3819C23.6338 98.746 26.0015 109.505 32.5063 118.497C41.0489 130.333 57.1554 134.293 70.5653 136.412C85.2951 138.745 99.6645 142.146 114.079 145.674C121.485 147.49 127.072 143.261 124.412 136.935C118.793 123.47 125.216 113.056 130.521 101.93C135.977 90.5036 139.752 78.5454 138.883 65.6486C138.002 52.8793 131.57 43.2918 120.27 37.82C111.257 33.4618 101.154 32.6054 93.0911 39.5864C83.2493 48.1311 76.0925 58.6443 77.3828 72.7773C77.4548 73.5397 77.3156 74.3488 77.2559 75.5948L77.2282 75.6236Z" fill="#FE5764"/>
<path d="M91.8249 56.7268C88.7645 59.9714 87.7984 63.2584 87.6686 66.6276C87.6088 68.5667 87.9298 71.1487 90.8332 71.3304C93.3113 71.4642 96.0363 71.9183 97.3163 68.7663C98.0975 66.8268 99.0922 64.9536 99.9161 63.0274C100.982 60.5021 103.872 57.9259 100.198 55.3126C96.51 52.6856 93.9483 55.4108 91.8393 56.7407L91.8249 56.7268Z" fill="#FD818B"/>
<path d="M44.5273 87.643C43.6407 88.5663 42.4258 89.3405 41.9385 90.4254C40.5858 93.4798 39.1211 96.5931 41.1144 100.032C42.0381 101.64 43.2279 103.116 45.0418 102.584C48.6703 101.549 49.409 98.2096 49.8256 95.0327C50.1319 92.6926 51.6886 91.3314 53.0849 89.7331C54.3842 88.2357 56.7887 86.8291 54.5344 84.4701C52.6412 82.4857 50.2404 82.6757 48.147 84.076C46.7652 84.9951 45.7625 86.4723 44.585 87.6985C44.5706 87.6846 44.5417 87.6569 44.5273 87.643Z" fill="#FD828A"/>
</g>
<defs>
<clipPath id="clip0_315_710">
<rect width="140.04" height="128.22" fill="white" transform="matrix(-0.692657 0.721267 0.721267 0.692657 97 0)"/>
</clipPath>
</defs>
</svg>
