<svg width="270" height="196" viewBox="0 0 270 196" fill="none" xmlns="http://www.w3.org/2000/svg">
<g clip-path="url(#clip0_315_715)">
<path d="M269.58 94.4196C269.76 90.0396 268.06 86.2596 265.04 83.7196C264.86 64.1996 264.56 44.1196 263.14 23.8396C262.98 21.4396 262.46 19.2796 261.6 17.2396C256.02 4.1796 242.96 3.9196 238.68 3.8396C230 3.6796 221.24 3.6596 212.74 3.6396C204.78 3.6396 196.56 3.6196 188.52 3.4796C172.78 3.1996 155.16 2.8996 137.66 3.5396C134.1 -0.1404 129.56 -0.1004 127.88 0.0596002C125.28 0.3196 122.4 1.4596 120.18 3.8196C117.16 3.8196 114.14 3.8196 111.14 3.8196C102.48 3.8796 93.6402 3.8596 85.0802 3.8196C67.5202 3.7596 49.3802 3.6996 31.4202 4.4996C31.1602 4.4996 30.9002 4.4996 30.6402 4.4996C28.7602 4.4996 25.6202 4.4996 22.2002 6.1996C13.2202 10.5996 8.26023 18.3996 8.20022 28.1596C8.12022 44.2996 8.10023 60.4196 8.08022 76.5596V85.3396C3.48023 87.0196 0.320225 91.0396 0.0202252 95.9996C-0.319775 101.64 2.96023 106.32 8.14023 108.12C8.14023 114.62 8.30023 121.06 8.46023 127.36C8.64023 133.98 8.82023 140.84 8.76023 147.48C8.72023 153.92 8.76023 160.36 8.84023 166.4C8.96023 177 13.8202 184.02 23.6802 187.86C29.5602 190.16 35.1802 190.2 40.1402 190.24H41.8202C56.3602 190.48 71.0802 190.24 85.3202 189.96C95.8802 189.78 106.86 189.6 117.5 189.58C118.46 189.58 119.44 189.58 120.4 189.58C123.06 193.32 127.16 195.02 131.08 195.02C131.28 195.02 131.48 195.02 131.66 195.02C136.06 194.84 139.7 192.74 141.98 189.44C147.34 189.4 152.1 189.3 156.6 189.14C163.42 188.9 170.42 188.84 177.2 188.76C182.88 188.7 188.74 188.66 194.56 188.5C201.4 188.32 208.42 188.28 215.22 188.26C224.7 188.22 234.5 188.18 244.22 187.72C250.5 187.42 255.74 184.54 259.36 179.4C263.18 173.96 265.1 167.74 265.1 160.9V150.38C265.1 134.86 265.1 119.32 265.1 103.82C268.92 100.6 269.5 96.1396 269.58 94.3996V94.4196Z" fill="white"/>
<path d="M9.14062 107.408L8.46875 107.175C3.69901 105.517 0.706326 101.239 1.01855 96.0596C1.29352 91.5162 4.17882 87.8295 8.42285 86.2793L9.08008 86.0391V76.5605C9.10008 60.4208 9.12021 44.3033 9.2002 28.166C9.2578 18.7957 13.9921 11.3353 22.6406 7.09766L22.6455 7.09473C25.8419 5.50595 28.778 5.5 30.6406 5.5H31.4424L31.4648 5.49902C49.3964 4.7003 67.5119 4.75835 85.0752 4.81836V4.81934C91.496 4.84934 98.0765 4.86841 104.621 4.85059L111.147 4.81934H120.612L120.908 4.50488C122.94 2.34492 125.584 1.29424 127.979 1.05469L127.979 1.05371C129.553 0.90435 133.701 0.886082 136.941 4.23535L137.251 4.55566L137.697 4.53906C155.166 3.90023 172.76 4.19944 188.503 4.47949C196.551 4.61964 204.778 4.63867 212.738 4.63867V4.63965C221.239 4.65965 229.991 4.67905 238.661 4.83887V4.83984C242.907 4.9192 254.987 5.19891 260.427 17.0586L260.681 17.6328C261.495 19.5669 261.99 21.6165 262.143 23.9062V23.9092C263.56 44.156 263.86 64.2096 264.04 83.7285L264.045 84.1885L264.396 84.4854C267.164 86.8134 268.741 90.2813 268.581 94.3535C268.506 95.9921 267.957 100.103 264.456 103.055L264.101 103.354V160.899C264.101 167.541 262.24 173.559 258.543 178.824C255.208 183.559 250.453 186.263 244.729 186.687L244.173 186.721C236.902 187.065 229.583 187.173 222.378 187.223L215.216 187.26C208.416 187.28 201.386 187.32 194.534 187.5H194.533C188.724 187.66 182.875 187.7 177.189 187.76H177.188C170.414 187.84 163.4 187.9 156.565 188.141H156.564C152.075 188.3 147.324 188.4 141.973 188.439L141.453 188.443L141.157 188.871C139.059 191.907 135.716 193.847 131.638 194.02H131.08C127.443 194.019 123.665 192.445 121.215 189L120.916 188.58H117.498C106.849 188.6 95.8619 188.78 85.3027 188.96H85.3008C71.0611 189.24 56.357 189.479 41.8369 189.239H40.1484C35.1761 189.199 29.7313 189.153 24.0449 186.929L24.043 186.928C19.2556 185.063 15.7548 182.457 13.4297 179.096C11.1047 175.734 9.89817 171.536 9.83984 166.389V166.387L9.78809 161.792C9.745 157.136 9.72982 152.312 9.75977 147.488C9.8049 142.493 9.7147 137.375 9.59082 132.337L9.45996 127.332C9.29994 121.031 9.14062 114.604 9.14062 108.119V107.408Z" stroke="black" stroke-opacity="0.22" stroke-width="2"/>
<path d="M131.481 13.4997C150.281 12.5397 169.121 12.8397 187.921 13.1597C204.641 13.4397 221.341 13.1997 238.061 13.5197C243.741 13.6197 249.321 14.6197 251.981 20.8397C252.441 21.9197 252.661 23.0197 252.741 24.2197C254.281 46.0597 254.481 67.9397 254.681 89.8197C253.421 91.8197 251.361 91.3997 249.541 91.3997C235.101 91.4597 220.641 91.2597 206.201 91.4997C197.561 91.6397 188.941 92.3197 180.301 92.0197C173.961 91.6397 167.621 91.9397 161.261 91.8397C160.621 91.8397 159.981 91.8797 159.361 91.8397C158.241 91.7597 156.681 92.1197 156.301 90.7997C156.001 89.7197 157.381 89.1197 158.221 88.5197C168.861 81.0397 179.421 73.4197 190.021 65.8797C207.181 53.6597 224.281 41.3997 241.321 29.0397C243.041 27.7997 244.801 26.6397 246.501 25.3797C247.581 24.5797 248.541 23.4797 247.581 22.1797C246.681 20.9397 245.421 21.7597 244.461 22.3797C239.581 25.5597 234.961 29.0997 230.261 32.5197C204.021 51.6797 177.581 70.5597 151.681 90.1597C150.421 91.1197 149.181 92.1197 147.541 92.4397C143.701 92.8597 139.861 92.6197 136.021 92.6197C134.981 92.6197 133.941 92.4997 133.101 91.7597C132.201 90.4397 132.441 88.9197 132.441 87.4797C132.421 78.5397 132.441 69.5997 132.421 60.6597C132.421 59.2997 132.561 57.9197 132.121 56.5797C131.861 55.3997 131.641 54.2197 131.301 53.0597C130.721 44.0997 131.181 35.1397 131.041 26.1997C131.001 23.1397 131.161 20.0797 130.681 17.0397C130.481 15.7997 130.381 14.4997 131.481 13.4997Z" fill="#FEB281"/>
<path d="M126.96 179.22C123.68 179.26 120.4 179.32 117.12 179.3C91.94 179.28 66.76 180.36 41.58 179.96C36.64 179.88 31.64 180.08 26.92 178.24C20.8 175.86 18.52 172.56 18.46 165.98C18.38 159.74 18.34 153.48 18.38 147.24C18.5 131.26 17.36 115.3 17.9 99.3402C19.28 97.9402 21.08 98.4002 22.72 98.4002C46 98.3602 69.26 98.4002 92.54 98.3602C94.12 98.3602 95.72 98.5402 97.26 98.0802C99.46 97.4602 101.78 98.0802 103.96 97.4002C107.76 96.8802 111.56 97.1602 115.36 97.1602C116.62 97.1602 118.14 97.1602 118.58 98.6202C119 100 117.58 100.58 116.72 101.26C108.04 108.2 102.42 117.02 100.4 128.02C100.18 129.16 99.94 130.3 99.96 131.48C99.96 132.1 99.84 132.76 100.44 133.46C101.44 132.26 101.58 130.8 101.92 129.44C104.3 119.86 108.5 111.38 116.42 105.1C117.92 103.9 119.54 102.92 121.28 102.14C121.86 101.88 122.56 101.54 123.08 101.96C123.76 102.52 123.46 103.36 123.08 104C121.46 106.74 120.1 109.62 119.02 112.6C115.52 122.44 114.06 132.46 117.3 142.72C116.84 138.08 116.5 133.48 117.16 128.8C118.16 121.7 120 114.92 123.58 108.68C124.18 107.64 124.78 106.04 126.24 106.4C127.6 106.72 127.7 108.32 127.8 109.6C127.88 110.54 127.86 111.5 127.86 112.46C127.86 133.1 127.86 153.74 127.86 174.38C127.86 176.02 128.3 177.8 126.98 179.22H126.96Z" fill="#FEB281"/>
<path d="M255.22 96.9601C254.34 98.2001 254.68 99.6201 254.68 100.96C254.68 120.84 254.68 140.72 254.68 160.62C254.68 165.28 253.46 169.52 250.74 173.38C248.88 176.02 246.48 177.3 243.32 177.44C226.84 178.22 210.34 177.78 193.86 178.22C181.18 178.56 168.5 178.4 155.82 178.86C148.74 179.12 141.68 179.18 134.6 179.16C133.34 177.98 133.7 176.4 133.7 174.98C133.66 166.52 133.7 158.06 133.68 149.6C133.68 148.34 133.88 147.04 133.06 145.92C132.44 144.76 132.44 143.48 132.42 142.2C132.42 133 132.4 123.78 132.42 114.58C132.42 113.26 132 111.38 133.48 110.92C135.02 110.44 135.66 112.3 136.38 113.36C141.72 121.26 149.1 126.22 158.32 128.42C162.56 129.42 166.72 129.1 170.66 127.02C177.28 123.54 179.5 115.62 175.58 109.16C173.56 105.84 170.88 103.2 167.5 101.24C166.86 100.86 166.18 100.58 165.56 100.16C164.82 99.6601 163.58 99.2801 163.92 98.1601C164.24 97.1201 165.48 97.2601 166.4 97.1801C167.46 97.0801 168.52 97.0801 169.58 97.1201C193.3 97.1201 217 97.1201 240.72 97.1201C241.98 97.1201 243.26 97.2201 244.5 96.8401C246 96.4201 247.6 96.6201 249.08 96.0601C251.16 95.9601 253.36 95.0801 255.16 96.9601H255.22Z" fill="#FEB282"/>
<path d="M17.6406 93.96C17.6806 71.94 17.6806 49.94 17.7806 27.92C17.8006 21.88 20.7006 17.56 26.1606 14.9C27.9206 14.04 29.6606 14.28 31.4206 14.2C57.8606 13.02 84.3206 13.74 110.761 13.52C115.741 13.48 120.701 13.52 125.681 13.52C126.701 14.54 126.561 15.86 126.561 17.1C126.581 34.46 126.601 51.8 126.561 69.16C126.561 70.56 127.001 72.72 125.361 73.02C123.821 73.3 123.341 71.16 122.721 69.86C119.941 63.92 116.221 58.78 110.921 54.78C107.261 52.04 103.201 51.42 98.8806 52.18C94.5006 52.94 91.4606 56.48 91.0606 61C90.9006 62.9 91.1006 64.8 91.3606 66.68C91.3806 69.16 90.1406 69.34 88.3406 68.26C86.1606 66.96 84.1406 65.4 82.1006 63.9C64.9406 51.16 47.5806 38.68 30.1206 26.38C28.5206 25.26 27.0006 23.94 24.7806 23.44C24.7406 25.22 25.9406 25.68 26.7806 26.34C48.2606 43.36 70.3807 59.52 92.4407 75.78C93.5406 76.6 94.5206 77.6 95.6806 78.34C98.4206 80.48 100.181 83.62 103.101 85.62C104.921 86.88 106.901 87.88 108.681 89.2C109.541 89.84 111.281 90.26 110.061 92.02C107.841 92.98 105.501 92.44 103.221 92.54C98.1006 92.78 92.9606 92.14 87.8606 92.9C86.7006 93.12 85.5606 93.4 84.4206 93.7C75.4406 94.26 66.4406 93.64 57.4406 94C45.7206 94.46 33.9806 94.28 22.2606 95.12C20.6206 95.24 18.8406 95.58 17.6006 93.96H17.6406Z" fill="#FEB281"/>
<path d="M110.806 91.4351C104.866 88.4551 99.8057 84.3751 95.6257 79.2151C92.8257 75.9551 91.0857 72.2951 91.1657 67.9151C90.4257 64.9151 90.0657 61.8751 90.9657 58.8551C93.3257 50.9951 101.386 49.8551 107.906 52.2151C113.326 54.1951 116.906 58.5551 120.246 63.1551C122.466 66.2151 123.726 69.7751 126.086 72.9351C126.086 53.2351 126.086 33.5551 126.086 13.8551C126.246 13.4751 126.486 13.0951 126.566 12.6951C126.826 11.3551 127.306 10.1751 128.826 10.0151C130.626 9.83513 131.046 11.2951 131.486 12.6151C131.626 13.0151 131.726 13.4151 131.866 13.8151C132.846 27.1351 132.346 40.4751 132.506 53.7951C133.606 60.2551 132.926 66.7751 133.066 73.2751C133.206 79.1551 132.966 85.0351 133.186 90.9151C133.306 91.2951 133.506 91.6351 133.786 91.9151C138.866 91.8951 143.926 91.8551 149.006 91.8351C151.646 90.9751 154.286 91.3351 157.026 91.4751C164.446 91.8351 171.906 92.0751 179.326 91.3551C203.646 90.6951 227.966 90.7551 252.306 90.5951C253.226 90.5951 254.166 90.2951 255.086 90.1351C255.486 90.2551 255.886 90.4351 256.286 90.4951C258.326 90.7951 259.666 91.8151 259.566 93.9951C259.466 96.4551 257.606 96.9751 255.626 97.2751C253.546 97.2351 251.466 97.1751 249.386 97.1351C246.666 97.4751 243.946 97.7151 241.206 97.7151C222.086 97.7151 202.946 97.7151 183.826 97.7151C182.446 97.7151 181.086 97.6151 179.726 97.8551C176.246 98.3951 172.726 97.5751 169.246 98.2951H164.846C168.046 100.615 171.386 102.455 174.106 105.275C180.386 111.735 179.846 120.295 176.486 124.295C172.006 129.595 165.946 131.135 159.326 129.795C148.666 127.655 140.586 121.695 134.926 112.415C134.726 112.075 134.626 111.615 133.946 111.655V145.975C134.146 146.335 134.266 146.695 134.306 147.095C134.486 157.775 134.206 168.455 134.446 179.135C134.606 179.715 134.726 180.275 134.526 180.875C134.506 183.135 133.686 184.995 131.226 185.095C128.746 185.195 127.906 183.295 127.586 181.135C127.506 180.615 127.426 180.095 127.346 179.575C127.346 155.495 127.346 131.395 127.346 107.315C127.046 107.275 126.746 107.235 126.426 107.175C123.746 110.335 122.246 114.135 120.986 118.055C118.266 126.415 117.106 134.875 118.966 143.575C119.146 144.415 119.146 145.495 118.146 145.715C116.926 145.975 117.026 144.635 116.786 143.955C114.026 136.015 114.626 127.935 116.326 119.915C117.606 113.835 119.986 108.115 123.826 102.195C115.766 106.155 110.566 111.835 106.986 119.175C104.806 123.655 103.606 128.435 102.266 133.195C102.006 134.155 102.406 135.955 100.606 135.715C98.7257 135.455 99.3257 133.715 99.4057 132.615C100.206 122.415 103.806 113.395 111.046 105.995C113.446 103.535 115.926 101.155 119.446 98.7951C113.986 98.0351 109.266 98.6551 104.566 98.3951C100.906 98.6951 97.2257 98.9551 93.5457 98.9551C68.6057 98.9951 43.6657 98.8951 18.7257 99.0151C18.5257 99.0351 18.3057 99.0751 18.1057 99.0951C16.2257 99.0351 14.3257 99.0551 12.4657 98.8951C11.1457 98.7751 9.90573 98.1951 10.0057 96.6151C10.0857 95.2751 11.1857 94.6951 12.4257 94.5751C14.3057 94.4151 16.1857 94.3551 18.0657 94.2551C27.2257 94.0951 36.4057 94.1951 45.5457 93.7151C58.8257 93.0351 72.1057 93.3751 85.3857 93.1951C92.6657 92.0551 99.9857 92.8551 107.306 92.6151C108.466 92.5751 109.606 92.6751 110.726 92.5551C111.386 92.2551 111.066 91.8151 110.866 91.3951L110.806 91.4351Z" fill="#7B0AD1"/>
<path d="M97.6808 98.6C96.6808 99.78 95.3008 99.24 94.1208 99.24C68.7008 99.3 43.2808 99.32 17.8808 99.36C17.7808 99.18 17.7208 99 17.7208 98.8L17.7808 98.54C18.5008 98.28 19.2408 98.38 19.9808 98.38C45.0608 98.38 70.1208 98.38 95.2008 98.38C96.0408 98.38 96.9008 98.22 97.7008 98.62L97.6808 98.6Z" fill="#DAA9B3"/>
<path d="M134.12 180.52C134.04 180.08 133.96 179.64 133.88 179.22C133.34 170.3 133.82 161.38 133.62 152.46C133.58 150.38 134.02 148.28 133.32 146.22C133.4 146.02 133.46 145.82 133.54 145.62C135.6 145.52 134.5 147.12 134.52 147.78C134.62 158.24 134.62 168.7 134.64 179.16C134.48 179.62 134.3 180.06 134.14 180.52H134.12Z" fill="#DEA8AC"/>
<path d="M178.921 91.04C178.561 91.52 178.041 91.56 177.521 91.56C167.881 91.56 158.241 91.56 148.601 91.54C171.481 73.96 195.081 57.36 218.261 40.18C226.881 33.78 235.741 27.68 244.461 21.4C245.701 20.5 246.961 20.1 248.241 21.02C249.341 21.82 248.981 23.14 248.821 24.28C248.701 25.08 247.941 25.38 247.341 25.82C226.681 40.58 206.041 55.34 185.381 70.1C176.121 76.72 166.861 83.3 157.601 89.92C157.301 90.14 157.001 90.4 156.221 91.06H178.921V91.04Z" fill="#EB955F"/>
<path d="M132.72 91.62C131.96 91.14 132.06 90.36 132.06 89.64C132.06 77.6 132.08 65.54 132.1 53.5C132.84 54.28 132.52 55.28 132.64 56.18C133 56.62 133 57.14 133 57.66C133 68.58 133 79.5 133 90.42C133 90.84 132.94 91.26 132.72 91.62Z" fill="#A16F7D"/>
<path d="M132.721 91.62C132.701 79.8 132.661 67.98 132.641 56.16C133.761 57.06 133.261 58.32 133.281 59.4C133.341 70.14 133.361 80.86 133.381 91.6C133.161 91.6 132.941 91.6 132.721 91.6V91.62Z" fill="#D6A4B2"/>
<path d="M97.6803 98.5998C72.6203 98.6198 47.5603 98.6598 22.5203 98.6598C20.9403 98.6598 19.3603 98.5598 17.7803 98.5198C18.2803 97.9998 18.9203 98.0398 19.5403 98.0398C47.7603 98.0398 75.9603 98.0798 104.18 98.0798C102.08 99.0798 99.8403 98.3398 97.7003 98.5998H97.6803Z" fill="#9E6D78"/>
<path d="M234.24 166.2C230.56 166.2 226.86 166.4 223.2 166.14C219.54 165.88 218.98 164.78 219.46 161.22C219.74 159.04 219.64 156.8 219.68 154.58C219.72 152.54 220.66 151.4 222.74 151.36C228.44 151.26 234.1 150.5 239.8 150.64C242.56 150.7 244.14 151.68 244.74 154.44C245.32 157.06 245.28 159.7 245.24 162.32C245.2 164.84 243.22 165.9 240.88 166.02C238.66 166.14 236.44 166.04 234.22 166.04V166.22L234.24 166.2Z" fill="#FDFCF8"/>
<path d="M203.5 165.32C201.06 165.32 198.64 165.38 196.22 165.32C192.9 165.2 191.6 163.78 191.84 160.56C191.98 158.68 192.2 156.78 192.46 154.92C192.7 153.2 193.48 152.08 195.46 151.88C200.6 151.36 205.72 150.78 210.9 150.74C212.38 150.74 213.52 151.3 213.62 152.78C213.82 155.92 214.86 158.96 214.66 162.18C214.52 164.56 213.58 165.62 211.12 165.48C208.6 165.34 206.06 165.46 203.52 165.46C203.52 165.42 203.52 165.4 203.52 165.36L203.5 165.32Z" fill="#FDFCF7"/>
<path d="M168.84 97.9603C172.2 96.8203 175.68 97.7403 179.08 97.4003C179.74 96.9203 180.5 97.0803 181.22 97.0803C201.88 97.0803 222.52 97.0803 243.18 97.0803C243.8 97.0803 244.46 97.0003 245.04 97.3403C244.56 98.1003 243.78 98.0003 243.04 98.0003C218.3 98.0003 193.56 98.0003 168.82 97.9603H168.84Z" fill="#D8A7B0"/>
<path d="M245.04 97.34C223.06 97.36 201.06 97.38 179.08 97.42C179.58 96.7 180.36 96.78 181.1 96.78C203.72 96.78 226.36 96.8 248.98 96.82C247.76 97.72 246.36 97.16 245.04 97.34Z" fill="#A2707A"/>
<path d="M90.8006 67.5601C91.9206 71.48 93.5606 75.1801 95.2606 78.8601C76.8606 65.1401 58.2006 51.7601 40.1206 37.6001C35.3206 33.8401 30.4806 30.1001 25.6006 26.4201C24.4006 25.5001 22.6806 24.5801 23.7606 23.0001C24.7606 21.5401 26.2806 22.8401 27.3606 23.5801C35.4006 29.2001 43.4206 34.8201 51.3806 40.5601C63.6006 49.3601 75.7606 58.2801 87.9806 67.0801C88.7006 67.6001 89.5406 69.3801 90.8006 67.5601Z" fill="#EB955F"/>
<path d="M112.901 92.22C112.361 93.16 111.441 92.94 110.641 92.94C102.081 92.94 93.5205 92.92 84.9805 92.9C85.7605 92.16 86.7605 92.48 87.6605 92.38C90.6605 91.56 93.7405 92.04 96.7605 92.06C102.141 92.08 107.521 91.7 112.901 92.24V92.22Z" fill="#9C6E7D"/>
<path d="M112.9 92.22C104.48 92.26 96.06 92.32 87.66 92.36C88.46 91.3 89.6 91.74 90.6 91.72C96.1 91.66 101.6 91.7 107.1 91.64C108.22 91.64 109.44 91.98 110.44 91.08C111.26 91.46 112.08 91.84 112.9 92.22Z" fill="#D2A3B3"/>
<path d="M149.941 99.2404C153.821 99.6204 157.601 100.46 161.221 101.92C161.821 102.44 162.541 102.68 163.241 103.02C168.561 104.76 172.021 108.5 173.641 113.66C175.541 119.68 168.901 125.28 161.761 123.88C150.481 121.68 142.841 114.88 137.761 104.86C137.981 102.08 140.681 99.6604 144.661 98.6804C146.441 98.6204 148.221 98.6204 149.941 99.2404Z" fill="#FEB282"/>
<path d="M104.567 56.3549C109.687 57.8949 112.487 62.0149 115.267 66.0749C120.107 73.1149 121.807 81.4349 124.587 89.3149C125.507 91.9149 123.267 90.9349 122.467 90.6149C113.587 87.1149 104.647 83.6549 99.347 74.8749C98.907 74.2549 98.727 73.4549 98.147 72.9349C96.567 69.9349 95.427 66.7549 95.087 63.3949C94.807 60.5949 95.127 57.8949 98.067 56.4149C100.227 55.4749 102.387 55.5549 104.567 56.3549Z" fill="#FDB282"/>
<path d="M144.121 99.2998C141.761 100.88 138.921 101.9 137.781 104.88C137.041 103.72 135.861 102.8 135.821 101.26C135.641 99.3598 137.541 99.1798 138.421 98.1598C141.781 98.2598 145.161 97.4998 148.461 98.6598C147.101 99.4998 145.461 98.4398 144.101 99.2998H144.121Z" fill="#EA9462"/>
<path d="M133.321 146.22C133.801 146.7 133.881 147.32 133.881 147.98C133.881 158.4 133.881 168.82 133.881 179.24C133.021 178.5 133.341 177.48 133.341 176.58C133.321 166.46 133.341 156.36 133.341 146.24L133.321 146.22Z" fill="#A06F7C"/>
<path d="M138.42 98.14C138.56 100.02 136.38 99.94 135.82 101.24C135 100.72 134.06 99.8 134.5 99.04C135.34 97.62 137.02 98.1 138.42 98.14Z" fill="#ECAB96"/>
<path d="M104.2 56.0207C102.04 56.0207 99.8803 56.0607 97.7003 56.0807C97.7403 55.9007 97.7803 55.7207 97.8003 55.5407C99.8803 54.9007 101.96 54.9607 104.04 55.5007C104.08 55.6807 104.12 55.8407 104.18 56.0207H104.2Z" fill="#D6A5B2"/>
<path d="M104.06 55.5006C101.98 55.5006 99.9004 55.5206 97.8204 55.5406C99.9004 54.4006 101.98 54.4606 104.06 55.5006Z" fill="#A2707A"/>
<path d="M144.12 99.3C145.42 98.08 147.02 98.86 148.48 98.66C149.04 98.66 149.58 98.76 149.96 99.24C148.02 99.24 146.08 99.28 144.14 99.28L144.12 99.3Z" fill="#ECAB96"/>
<path d="M163.241 103.02C162.301 103.12 161.421 103.16 161.221 101.92C162.161 101.8 162.761 102.3 163.241 103.02Z" fill="#CE979C"/>
<path d="M97.8 72.5996C99.04 72.7196 99.04 73.6196 99 74.5396C98.22 74.1196 97.74 73.5196 97.8 72.5996Z" fill="#D19A9F"/>
<path d="M231.581 154.6C233.801 154.6 236.021 154.74 238.221 154.56C240.321 154.38 241.061 155.38 240.581 157.12C240.161 158.7 242.001 161.46 238.301 161.54C233.881 161.64 229.461 161.76 225.101 162.72C223.541 163.06 222.961 162.54 222.661 160.86C221.561 154.8 221.501 154.78 227.441 154.68C228.821 154.66 230.181 154.68 231.561 154.68C231.561 154.66 231.561 154.64 231.561 154.62L231.581 154.6Z" fill="#FB5A66"/>
<path d="M204.58 153.979C205.62 153.979 206.26 153.979 206.88 153.979C210.36 154.019 212.42 157.479 210.9 160.659C210.58 161.319 210.12 161.559 209.42 161.579C205.54 161.739 201.66 161.879 197.78 162.139C195.62 162.299 194.94 161.139 194.96 159.299C194.98 157.439 194.06 154.919 197.14 154.659C199.76 154.439 202.32 153.639 204.56 153.959L204.58 153.979Z" fill="#FC848E"/>
</g>
<defs>
<clipPath id="clip0_315_715">
<rect width="269.58" height="195.06" fill="white"/>
</clipPath>
</defs>
</svg>
