<svg width="22" height="17" viewBox="0 0 22 17" fill="none" xmlns="http://www.w3.org/2000/svg">
<path d="M7.25 14.75C7.25 15.1478 7.09196 15.5293 6.81066 15.8107C6.52936 16.092 6.14782 16.25 5.75 16.25C5.35217 16.25 4.97064 16.092 4.68934 15.8107C4.40803 15.5293 4.25 15.1478 4.25 14.75M7.25 14.75C7.25 14.3522 7.09196 13.9706 6.81066 13.6893C6.52936 13.408 6.14782 13.25 5.75 13.25C5.35217 13.25 4.97064 13.408 4.68934 13.6893C4.40803 13.9706 4.25 14.3522 4.25 14.75M7.25 14.75H13.25M4.25 14.75H2.375C2.07663 14.75 1.79048 14.6315 1.5795 14.4205C1.36853 14.2095 1.25 13.9234 1.25 13.625V10.25M13.25 14.75H15.5M13.25 14.75V10.25M1.25 10.25V2.61499C1.24841 2.34116 1.34846 2.07648 1.53079 1.87217C1.71312 1.66786 1.96475 1.53845 2.237 1.50899C5.57005 1.16302 8.92995 1.16302 12.263 1.50899C12.828 1.56699 13.25 2.04699 13.25 2.61499V3.57299M1.25 10.25H13.25M18.5 14.75C18.5 15.1478 18.342 15.5293 18.0607 15.8107C17.7794 16.092 17.3978 16.25 17 16.25C16.6022 16.25 16.2206 16.092 15.9393 15.8107C15.658 15.5293 15.5 15.1478 15.5 14.75M18.5 14.75C18.5 14.3522 18.342 13.9706 18.0607 13.6893C17.7794 13.408 17.3978 13.25 17 13.25C16.6022 13.25 16.2206 13.408 15.9393 13.6893C15.658 13.9706 15.5 14.3522 15.5 14.75M18.5 14.75H19.625C20.246 14.75 20.754 14.246 20.715 13.626C20.5141 10.3236 19.4019 7.14155 17.502 4.43299C17.321 4.17927 17.0848 3.97001 16.811 3.82102C16.5373 3.67203 16.2333 3.58722 15.922 3.57299H13.25M13.25 3.57299V10.25" stroke="#7B0AD1" stroke-width="1.5" stroke-linecap="round" stroke-linejoin="round"/>
</svg>
