<svg width="16" height="15" viewBox="0 0 16 15" fill="none" xmlns="http://www.w3.org/2000/svg">
<path d="M5.75 6C5.75 6.06631 5.72366 6.12989 5.67678 6.17678C5.62989 6.22366 5.5663 6.25 5.5 6.25C5.4337 6.25 5.37011 6.22366 5.32322 6.17678C5.27634 6.12989 5.25 6.06631 5.25 6C5.25 5.9337 5.27634 5.87011 5.32322 5.82322C5.37011 5.77634 5.4337 5.75 5.5 5.75C5.5663 5.75 5.62989 5.77634 5.67678 5.82322C5.72366 5.87011 5.75 5.9337 5.75 6ZM5.75 6H5.5M8.25 6C8.25 6.06631 8.22366 6.12989 8.17678 6.17678C8.12989 6.22366 8.0663 6.25 8 6.25C7.9337 6.25 7.87011 6.22366 7.82322 6.17678C7.77634 6.12989 7.75 6.06631 7.75 6C7.75 5.9337 7.77634 5.87011 7.82322 5.82322C7.87011 5.77634 7.9337 5.75 8 5.75C8.0663 5.75 8.12989 5.77634 8.17678 5.82322C8.22366 5.87011 8.25 5.9337 8.25 6ZM8.25 6H8M10.75 6C10.75 6.06631 10.7237 6.12989 10.6768 6.17678C10.6299 6.22366 10.5663 6.25 10.5 6.25C10.4337 6.25 10.3701 6.22366 10.3232 6.17678C10.2763 6.12989 10.25 6.06631 10.25 6C10.25 5.9337 10.2763 5.87011 10.3232 5.82322C10.3701 5.77634 10.4337 5.75 10.5 5.75C10.5663 5.75 10.6299 5.77634 10.6768 5.82322C10.7237 5.87011 10.75 5.9337 10.75 6ZM10.75 6H10.5M1.5 8.00667C1.5 9.07333 2.24867 10.0027 3.30467 10.158C4.02933 10.2647 4.76133 10.3467 5.5 10.404V13.5L8.28933 10.7113C8.42744 10.5738 8.61312 10.4945 8.808 10.49C10.1091 10.458 11.407 10.3471 12.6947 10.158C13.7513 10.0027 14.5 9.074 14.5 8.006V3.994C14.5 2.926 13.7513 1.99733 12.6953 1.842C11.1406 1.61381 9.57135 1.49951 8 1.5C6.40533 1.5 4.83733 1.61667 3.30467 1.842C2.24867 1.99733 1.5 2.92667 1.5 3.994V8.006V8.00667Z" stroke="#7B0AD1" stroke-width="1.5" stroke-linecap="round" stroke-linejoin="round"/>
</svg>
