<svg width="17" height="16" viewBox="0 0 17 16" fill="none" xmlns="http://www.w3.org/2000/svg">
<path d="M16.0794 8.1958C16.0794 8.9158 15.5034 9.4918 14.7834 9.4918H9.59937V14.3878C9.59937 15.1078 9.02337 15.6838 8.30337 15.6838C7.58337 15.6838 7.00737 15.1078 7.00737 14.3878V9.4918H2.11137C1.39137 9.4918 0.815369 8.9158 0.815369 8.1958C0.815369 7.4758 1.39137 6.8998 2.11137 6.8998H7.00737V1.7158C7.00737 0.9958 7.58337 0.4198 8.30337 0.4198C9.02337 0.4198 9.59937 0.9958 9.59937 1.7158V6.8998H14.7834C15.5034 6.8998 16.0794 7.4758 16.0794 8.1958Z" fill="#7B0AD1"/>
</svg>
