<svg width="14" height="14" viewBox="0 0 14 14" fill="none" xmlns="http://www.w3.org/2000/svg">
<path d="M6.65332 1.83265C6.68152 1.76387 6.72954 1.70503 6.79127 1.66362C6.853 1.62221 6.92565 1.6001 6.99999 1.6001C7.07432 1.6001 7.14698 1.62221 7.20871 1.66362C7.27044 1.70503 7.31846 1.76387 7.34666 1.83265L8.76332 5.23998C8.78984 5.30374 8.83343 5.35894 8.8893 5.39952C8.94517 5.4401 9.01116 5.46448 9.07999 5.46998L12.7587 5.76465C13.0913 5.79131 13.226 6.20665 12.9727 6.42331L10.17 8.82465C10.1176 8.86944 10.0786 8.92778 10.0572 8.99328C10.0358 9.05878 10.0328 9.12891 10.0487 9.19598L10.9053 12.786C10.9225 12.858 10.918 12.9335 10.8924 13.003C10.8667 13.0724 10.821 13.1327 10.7611 13.1763C10.7012 13.2198 10.6297 13.2445 10.5557 13.2475C10.4817 13.2504 10.4085 13.2313 10.3453 13.1926L7.19532 11.2693C7.13648 11.2335 7.0689 11.2145 6.99999 11.2145C6.93108 11.2145 6.8635 11.2335 6.80466 11.2693L3.65466 13.1933C3.59149 13.232 3.51829 13.2511 3.44429 13.2481C3.3703 13.2452 3.29882 13.2204 3.2389 13.1769C3.17898 13.1334 3.1333 13.0731 3.10762 13.0036C3.08195 12.9342 3.07744 12.8587 3.09466 12.7866L3.95132 9.19598C3.96721 9.12891 3.96429 9.05876 3.94288 8.99325C3.92148 8.92773 3.88241 8.86939 3.82999 8.82465L1.02732 6.42331C0.971198 6.37505 0.930595 6.31128 0.910621 6.24C0.890648 6.16873 0.892194 6.09314 0.915066 6.02274C0.937938 5.95235 0.981114 5.89028 1.03917 5.84436C1.09722 5.79844 1.16755 5.7707 1.24132 5.76465L4.91999 5.46998C4.98882 5.46448 5.0548 5.4401 5.11067 5.39952C5.16654 5.35894 5.21014 5.30374 5.23666 5.23998L6.65332 1.83265Z" stroke="#FFBD59" stroke-width="1.5" stroke-linecap="round" stroke-linejoin="round"/>
</svg>
