<svg width="34" height="44" viewBox="0 0 34 44" fill="none" xmlns="http://www.w3.org/2000/svg">
<path fill-rule="evenodd" clip-rule="evenodd" d="M22.9937 3.13168C22.1996 3.59646 21.3874 4.44899 20.5757 5.73557C19.9793 6.68071 19.3917 7.85088 18.8209 9.26253H21.0685C21.4143 9.23483 21.747 9.19978 22.0655 9.15607C23.3994 8.97475 24.489 8.65884 25.334 8.20704C27.0103 7.31123 27.6683 6.12159 27.6371 5.06523C27.6252 4.66364 27.515 4.27416 27.325 3.92752C27.132 3.57396 26.8583 3.26583 26.5253 3.03085C25.67 2.42889 24.3942 2.31204 22.9937 3.13168ZM16.9955 38.1061C15.0015 39.9163 12.7817 41.299 10.4021 42.2705C7.55285 43.4342 4.49012 44.0003 1.32449 44.0003C0.593076 44.0003 0 43.3996 0 42.6579C0 42.6042 0.00298886 42.551 0.00939356 42.4982L1.19042 10.5582C1.21561 9.8355 1.80143 9.26729 2.51022 9.26729V9.26253H5.79199C4.39192 7.9859 3.82361 6.44875 3.86716 4.99599C3.8915 4.17679 4.1131 3.39133 4.49311 2.6959C4.86928 2.00695 5.40343 1.40455 6.05714 0.944533C7.64124 -0.169812 9.90338 -0.447209 12.2654 0.935013C13.3935 1.59497 14.4951 2.72316 15.5365 4.37412C16.0374 5.16866 16.528 6.08827 17.0032 7.139C17.4789 6.0887 17.969 5.16909 18.4699 4.37412C19.5113 2.72402 20.6129 1.59497 21.741 0.935013C24.103 -0.447209 26.3652 -0.169812 27.9493 0.944533C28.603 1.40412 29.1371 2.00695 29.5137 2.6959C29.8937 3.39133 30.1149 4.17679 30.1388 4.99599C30.1819 6.44832 29.6136 7.98547 28.214 9.26253H31.4958C32.2272 9.26253 32.8203 9.8632 32.8203 10.6049L32.819 10.6629L34 42.6103C34.0252 43.3485 33.456 43.9687 32.7267 43.9942H32.6802V43.9994C29.5487 43.9994 26.4612 43.3961 23.6077 42.2325C21.1915 41.2471 18.9494 39.8623 16.9964 38.1053L16.9955 38.1061ZM12.9345 9.26296H15.1821C14.6113 7.85131 14.0237 6.68114 13.4272 5.736C12.6156 4.44856 11.8026 3.59603 11.0093 3.13211C9.60833 2.31247 8.33209 2.43018 7.47728 3.03215C7.14381 3.2667 6.87096 3.57526 6.67797 3.92882C6.48796 4.27545 6.3778 4.66493 6.36585 5.06653C6.33468 6.12375 6.99223 7.3134 8.66898 8.20834C9.5144 8.6597 10.6045 8.97605 11.9375 9.15737C12.2565 9.20065 12.5887 9.23483 12.9345 9.26296ZM9.41875 39.7848C11.4529 38.9543 13.3611 37.7746 15.0908 36.2301L8.05114 29.0953C6.81759 27.8451 6.20061 26.1937 6.20061 24.5405C6.20061 22.8874 6.81717 21.2356 8.05114 19.9854C9.28895 18.7317 10.9183 18.1042 12.5455 18.1042V18.1094C14.1561 18.1094 15.7654 18.7191 16.993 19.9377C18.2231 18.7074 19.8392 18.092 21.457 18.092V18.0869C23.0851 18.0869 24.714 18.7139 25.951 19.9672C27.1845 21.2178 27.802 22.8701 27.802 24.5232C27.802 26.1764 27.185 27.8277 25.9514 29.078L18.8977 36.2271C20.5903 37.7223 22.5185 38.9028 24.5885 39.7467C26.7059 40.6101 28.9783 41.1255 31.3058 41.2713L30.2217 11.9465H3.77963L2.69553 41.2743C5.04477 41.1376 7.3052 40.646 9.41747 39.7839L9.41875 39.7848Z" fill="#7B0AD1"/>
</svg>
