<svg width="18" height="19" viewBox="0 0 18 19" fill="none" xmlns="http://www.w3.org/2000/svg">
<path fill-rule="evenodd" clip-rule="evenodd" d="M0 9.6001C0 6.00496 0 4.20739 0.856692 2.91265C1.23925 2.33449 1.73439 1.83934 2.31255 1.45679C3.60729 0.600098 5.40486 0.600098 9 0.600098C12.5951 0.600098 14.3927 0.600098 15.6874 1.45679C16.2656 1.83934 16.7608 2.33449 17.1433 2.91265C18 4.20739 18 6.00496 18 9.6001C18 13.1952 18 14.9928 17.1433 16.2875C16.7608 16.8657 16.2656 17.3609 15.6874 17.7434C14.3927 18.6001 12.5951 18.6001 9 18.6001C5.40486 18.6001 3.60729 18.6001 2.31255 17.7434C1.73439 17.3609 1.23925 16.8657 0.856692 16.2875C0 14.9928 0 13.1952 0 9.6001ZM13.6586 9.60014C13.6586 12.1735 11.5725 14.2596 8.99923 14.2596C6.42591 14.2596 4.33982 12.1735 4.33982 9.60014C4.33982 7.02682 6.42591 4.94073 8.99923 4.94073C11.5725 4.94073 13.6586 7.02682 13.6586 9.60014ZM8.99923 12.6831C10.7019 12.6831 12.0822 11.3028 12.0822 9.60014C12.0822 7.89745 10.7019 6.51714 8.99923 6.51714C7.29653 6.51714 5.91622 7.89745 5.91622 9.60014C5.91622 11.3028 7.29653 12.6831 8.99923 12.6831ZM13.8427 5.80146C14.4473 5.80146 14.9375 5.31129 14.9375 4.70664C14.9375 4.10199 14.4473 3.61182 13.8427 3.61182C13.238 3.61182 12.7478 4.10199 12.7478 4.70664C12.7478 5.31129 13.238 5.80146 13.8427 5.80146Z" fill="#7B0AD1"/>
</svg>
