<svg width="18" height="18" viewBox="0 0 18 18" fill="none" xmlns="http://www.w3.org/2000/svg">
<path d="M0 2.01991C0 1.44269 0.202708 0.966504 0.608108 0.591335C1.01351 0.216149 1.54055 0.0285645 2.18919 0.0285645C2.82626 0.0285645 3.34169 0.213257 3.73552 0.582677C4.14092 0.963629 4.34363 1.46001 4.34363 2.07185C4.34363 2.62597 4.14672 3.08771 3.7529 3.45713C3.3475 3.83809 2.81467 4.02856 2.15444 4.02856H2.13707C1.49999 4.02856 0.984562 3.83809 0.590734 3.45713C0.196905 3.07618 0 2.5971 0 2.01991ZM0.225869 17.1714V5.60432H4.08301V17.1714H0.225869ZM6.22008 17.1714H10.0772V10.7125C10.0772 10.3085 10.1236 9.9968 10.2162 9.77748C10.3784 9.38498 10.6245 9.05308 10.9546 8.78181C11.2847 8.51052 11.6988 8.37488 12.1969 8.37488C13.4942 8.37488 14.1429 9.24645 14.1429 10.9896V17.1714H18V10.5394C18 8.83086 17.5946 7.53505 16.7838 6.65194C15.973 5.76882 14.9015 5.32726 13.5695 5.32726C12.0753 5.32726 10.9112 5.96796 10.0772 7.24934V7.28397H10.0598L10.0772 7.24934V5.60432H6.22008C6.24324 5.97372 6.25483 7.12235 6.25483 9.05021C6.25483 10.978 6.24324 13.6851 6.22008 17.1714Z" fill="#7B0AD1"/>
</svg>
