<svg width="19" height="21" viewBox="0 0 19 21" fill="none" xmlns="http://www.w3.org/2000/svg">
<path d="M9.5 4.55958C8.72742 4.55958 7.97218 4.77461 7.3298 5.17748C6.68742 5.58035 6.18675 6.15296 5.8911 6.82291C5.59544 7.49285 5.51808 8.23004 5.66881 8.94125C5.81953 9.65246 6.19157 10.3058 6.73786 10.8185C7.28416 11.3313 7.98019 11.6805 8.73793 11.8219C9.49567 11.9634 10.2811 11.8908 10.9949 11.6133C11.7086 11.3358 12.3187 10.8658 12.7479 10.2629C13.1772 9.65998 13.4062 8.95112 13.4062 8.22598C13.4062 7.25359 12.9947 6.32103 12.2621 5.63344C11.5296 4.94586 10.536 4.55958 9.5 4.55958ZM9.5 10.4258C9.03645 10.4258 8.58331 10.2968 8.19788 10.0551C7.81245 9.81335 7.51205 9.46978 7.33466 9.06782C7.15726 8.66585 7.11085 8.22354 7.20128 7.79681C7.29172 7.37008 7.51494 6.97811 7.84272 6.67046C8.1705 6.3628 8.58811 6.15329 9.04276 6.06841C9.4974 5.98353 9.96865 6.02709 10.3969 6.19359C10.8252 6.36009 11.1912 6.64205 11.4488 7.00381C11.7063 7.36557 11.8438 7.79089 11.8438 8.22598C11.8438 8.80941 11.5968 9.36895 11.1573 9.7815C10.7177 10.194 10.1216 10.4258 9.5 10.4258ZM9.5 0.159912C7.22159 0.162338 5.03724 1.01293 3.42616 2.52509C1.81507 4.03724 0.908835 6.08747 0.90625 8.22598C0.90625 11.1041 2.32324 14.1545 5.00781 17.0482C6.21408 18.3558 7.57173 19.5333 9.05566 20.5588C9.18702 20.6452 9.34352 20.6915 9.50391 20.6915C9.66429 20.6915 9.82079 20.6452 9.95215 20.5588C11.4333 19.5328 12.7884 18.3554 13.9922 17.0482C16.6729 14.1545 18.0938 11.1041 18.0938 8.22598C18.0912 6.08747 17.1849 4.03724 15.5738 2.52509C13.9628 1.01293 11.7784 0.162338 9.5 0.159912ZM9.5 19.0418C7.88574 17.8503 2.46875 13.4735 2.46875 8.22598C2.46875 6.47568 3.20954 4.79707 4.52816 3.55942C5.84677 2.32177 7.6352 1.62647 9.5 1.62647C11.3648 1.62647 13.1532 2.32177 14.4718 3.55942C15.7905 4.79707 16.5312 6.47568 16.5312 8.22598C16.5312 13.4717 11.1143 17.8503 9.5 19.0418Z" fill="#7B0AD1"/>
</svg>
