<svg width="21" height="16" viewBox="0 0 21 16" fill="none" xmlns="http://www.w3.org/2000/svg">
<path d="M19.875 0.398438H1.125C0.9178 0.398438 0.719086 0.475694 0.572573 0.61321C0.42606 0.750726 0.34375 0.937238 0.34375 1.13172V13.5975C0.34375 13.9864 0.50837 14.3594 0.801396 14.6345C1.09442 14.9095 1.49185 15.064 1.90625 15.064H19.0938C19.5082 15.064 19.9056 14.9095 20.1986 14.6345C20.4916 14.3594 20.6562 13.9864 20.6562 13.5975V1.13172C20.6562 0.937238 20.5739 0.750726 20.4274 0.61321C20.2809 0.475694 20.0822 0.398438 19.875 0.398438ZM10.5 8.20327L3.13379 1.86499H17.8662L10.5 8.20327ZM7.63965 7.73122L1.90625 12.6634V2.79901L7.63965 7.73122ZM8.7959 8.72573L9.96777 9.73857C10.1119 9.86276 10.3004 9.93167 10.4961 9.93167C10.6917 9.93167 10.8803 9.86276 11.0244 9.73857L12.1963 8.72573L17.8604 13.5975H3.13379L8.7959 8.72573ZM13.3604 7.73122L19.0938 2.79809V12.6644L13.3604 7.73122Z" fill="#7B0AD1"/>
</svg>
