<svg width="20" height="19" viewBox="0 0 20 19" fill="none" xmlns="http://www.w3.org/2000/svg">
<path d="M18.7158 12.6115L14.1152 10.6766L14.1025 10.6711C13.8637 10.5752 13.6032 10.5367 13.3445 10.5591C13.0858 10.5815 12.8372 10.6641 12.6211 10.7994C12.5957 10.8152 12.5712 10.8323 12.5479 10.8507L10.1709 12.7527C8.66505 12.0661 7.11036 10.6179 6.37892 9.22284L8.40821 6.95793C8.42774 6.93501 8.4463 6.9121 8.46388 6.88735C8.60492 6.68506 8.69049 6.45317 8.71298 6.21234C8.73547 5.9715 8.69418 5.72919 8.59278 5.50695V5.49595L6.5254 1.17052C6.39136 0.880205 6.16087 0.638361 5.86836 0.481095C5.57584 0.323828 5.23697 0.259573 4.90235 0.297923C3.57908 0.461359 2.36444 1.07132 1.4853 2.01388C0.606149 2.95644 0.122616 4.16715 0.125009 5.41987C0.125009 12.6977 6.4336 18.6189 14.1875 18.6189C15.5222 18.6211 16.8121 18.1673 17.8163 17.3421C18.8205 16.517 19.4704 15.3769 19.6445 14.1349C19.6855 13.8209 19.6172 13.5029 19.4498 13.2284C19.2824 12.9539 19.025 12.7375 18.7158 12.6115ZM14.1875 17.1523C10.8734 17.1489 7.69609 15.9117 5.35267 13.7122C3.00925 11.5127 1.69113 8.53047 1.68751 5.41987C1.68384 4.52481 2.0274 3.65908 2.65405 2.98439C3.28069 2.30969 4.14757 1.87215 5.09278 1.75348C5.0924 1.75714 5.0924 1.76082 5.09278 1.76448L7.14356 6.07249L5.12501 8.34016C5.10452 8.36228 5.08591 8.38588 5.06934 8.41073C4.92239 8.62239 4.83618 8.86609 4.81907 9.11822C4.80196 9.37035 4.85453 9.62234 4.97169 9.84979C5.85645 11.5482 7.6797 13.2467 9.5088 14.0762C9.7529 14.1852 10.0229 14.2328 10.2925 14.2145C10.5621 14.1962 10.822 14.1125 11.0469 13.9717C11.072 13.9559 11.0961 13.9387 11.1192 13.9204L13.4932 12.0194L18.083 13.9488H18.0938C17.9689 14.8372 17.5034 15.6525 16.7844 16.2422C16.0655 16.8318 15.1423 17.1553 14.1875 17.1523Z" fill="#7B0AD1"/>
</svg>
