<svg width="20" height="15" viewBox="0 0 20 15" fill="none" xmlns="http://www.w3.org/2000/svg">
<path d="M10.4383 14.5803L6.37607 14.5043C5.06083 14.4779 3.7423 14.5307 2.45285 14.2566C0.491281 13.8471 0.352317 11.8392 0.206906 10.155C0.00654354 7.78712 0.0841097 5.3763 0.462219 3.02823C0.675674 1.71071 1.51571 0.92454 2.81479 0.838989C7.20014 0.528515 11.6146 0.565309 15.9903 0.710157C16.4524 0.723435 16.9177 0.796011 17.3734 0.878622C19.6227 1.28154 19.6775 3.55694 19.8233 5.47239C19.9688 7.40762 19.9074 9.35277 19.6294 11.2748C19.4065 12.8662 18.9798 14.2008 17.1795 14.3296C14.9237 14.4981 12.7197 14.6337 10.4576 14.5905C10.4577 14.5803 10.4447 14.5803 10.4383 14.5803ZM8.05009 10.5513C9.74999 9.55388 11.4175 8.57309 13.1076 7.58237C11.4046 6.58496 9.74027 5.60417 8.05009 4.61344V10.5513Z" fill="#7B0AD1"/>
</svg>
